<svg xmlns="http://www.w3.org/2000/svg" xmlns:xlink="http://www.w3.org/1999/xlink" width="66.656" height="65.392" viewBox="0 0 66.656 65.392">
  <defs>
    <clipPath id="clip-path">
      <rect id="Ret창ngulo_3769" data-name="Ret창ngulo 3769" width="66.656" height="65.392" fill="#fff"/>
    </clipPath>
  </defs>
  <g id="Grupo_1193" data-name="Grupo 1193" transform="translate(0 0)">
    <g id="Grupo_1192" data-name="Grupo 1192" transform="translate(0 0)" clip-path="url(#clip-path)">
      <path id="Caminho_1141" data-name="Caminho 1141" d="M7.742,44.68H30.436a3.242,3.242,0,0,1,3.242,3.242V70.616a3.242,3.242,0,0,1-3.242,3.242H7.742A3.242,3.242,0,0,1,4.5,70.616V47.922A3.242,3.242,0,0,1,7.742,44.68" transform="translate(-0.853 -8.466)" fill="#fff"/>
      <path id="Caminho_1142" data-name="Caminho 1142" d="M49.481,44.68H72.175a3.242,3.242,0,0,1,3.242,3.242V70.616a3.242,3.242,0,0,1-3.242,3.242H49.481a3.242,3.242,0,0,1-3.242-3.242V47.922a3.242,3.242,0,0,1,3.242-3.242" transform="translate(-8.762 -8.466)" fill="#fff"/>
      <path id="Caminho_1143" data-name="Caminho 1143" d="M49.481,2.941H72.175a3.242,3.242,0,0,1,3.242,3.242V28.877a3.242,3.242,0,0,1-3.242,3.242H49.481a3.242,3.242,0,0,1-3.242-3.242V6.183a3.242,3.242,0,0,1,3.242-3.242" transform="translate(-8.762 -0.557)" fill="#fff"/>
      <path id="Caminho_1144" data-name="Caminho 1144" d="M35.382,9.037,20.87.631a5.806,5.806,0,0,0-5.267,0L1.091,9.037c-1.455.842-1.455,2.209,0,3.051L15.6,20.493a5.8,5.8,0,0,0,5.267,0l14.512-8.405c1.454-.842,1.454-2.209,0-3.051" transform="translate(0 0)" fill="#fff"/>
      <rect id="Ret창ngulo_3768" data-name="Ret창ngulo 3768" width="1.622" height="9.561" transform="translate(32.233 13.146)" fill="#fff"/>
      <path id="Caminho_1145" data-name="Caminho 1145" d="M42.38,28.01a2.1,2.1,0,1,1-2.1-2.077,2.09,2.09,0,0,1,2.1,2.077" transform="translate(-7.233 -4.914)" fill="#fff"/>
      <path id="Caminho_1146" data-name="Caminho 1146" d="M22.347,26.285a5.806,5.806,0,0,1-5.267,0L8.735,21.451a11.917,11.917,0,1,0,21.958,0Z" transform="translate(-1.477 -4.064)" fill="#fff"/>
    </g>
  </g>
</svg>
